<svg xmlns="http://www.w3.org/2000/svg" xmlns:xlink="http://www.w3.org/1999/xlink" width="2000" zoomAndPan="magnify" viewBox="0 0 1500 1499.999933" height="2000" preserveAspectRatio="xMidYMid meet" version="1.0"><defs><g/><clipPath id="0ab94ee19f"><rect x="0" width="742" y="0" height="498"/></clipPath><clipPath id="b00ede3286"><rect x="0" width="473" y="0" height="328"/></clipPath><clipPath id="f358f25d10"><path d="M 544.484375 536 L 605.234375 536 L 605.234375 701.296875 L 544.484375 701.296875 Z M 544.484375 536 " clip-rule="nonzero"/></clipPath><clipPath id="d22d0055cd"><path d="M 1122.800781 539.78125 L 1183.550781 539.78125 L 1183.550781 681.53125 L 1122.800781 681.53125 Z M 1122.800781 539.78125 " clip-rule="nonzero"/></clipPath></defs><rect x="-150" width="1800" fill="#ffffff" y="-149.999993" height="1799.99992" fill-opacity="1"/><rect x="-150" width="1800" fill="#ffffff" y="-149.999993" height="1799.99992" fill-opacity="1"/><g transform="matrix(1, 0, 0, 1, 494, 427)"><g clip-path="url(#0ab94ee19f)"><g fill="#000000" fill-opacity="1"><g transform="translate(0.837446, 385.260971)"><g><path d="M 12.890625 -291.40625 L 89.890625 -291.40625 C 113.191406 -291.40625 129.816406 -283.882812 139.765625 -268.84375 C 149.710938 -253.800781 154.6875 -231.804688 154.6875 -202.859375 C 154.6875 -173.910156 150.273438 -152.085938 141.453125 -137.390625 C 132.640625 -122.691406 116.8125 -115.34375 93.96875 -115.34375 L 70.21875 -115.34375 L 70.21875 0 L 12.890625 0 Z M 73.609375 -167.921875 C 80.617188 -167.921875 85.765625 -169.21875 89.046875 -171.8125 C 92.328125 -174.414062 94.472656 -178.148438 95.484375 -183.015625 C 96.503906 -187.878906 97.015625 -194.832031 97.015625 -203.875 C 97.015625 -216.09375 95.65625 -224.914062 92.9375 -230.34375 C 90.226562 -235.769531 84.804688 -238.484375 76.671875 -238.484375 L 70.21875 -238.484375 L 70.21875 -167.921875 Z M 73.609375 -167.921875 "/></g></g></g><g fill="#000000" fill-opacity="1"><g transform="translate(148.404539, 385.260971)"><g><path d="M 12.890625 0 L 12.890625 -291.40625 L 129.59375 -291.40625 L 129.59375 -235.09375 L 72.25 -235.09375 L 72.25 -178.4375 L 127.21875 -178.4375 L 127.21875 -123.484375 L 72.25 -123.484375 L 72.25 -56.65625 L 133.3125 -56.65625 L 133.3125 0 Z M 12.890625 0 "/></g></g></g><g fill="#000000" fill-opacity="1"><g transform="translate(275.617514, 385.260971)"><g><path d="M 12.890625 0 L 12.890625 -291.40625 L 72.9375 -291.40625 L 99.734375 -151.984375 L 99.734375 -291.40625 L 156.046875 -291.40625 L 156.046875 0 L 99.0625 0 L 69.875 -145.875 L 69.875 0 Z M 12.890625 0 "/></g></g></g><g fill="#000000" fill-opacity="1"><g transform="translate(432.004768, 385.260971)"><g><path d="M 82.09375 2.71875 C 55.632812 2.71875 36.523438 -3.835938 24.765625 -16.953125 C 13.003906 -30.078125 7.125 -51.226562 7.125 -80.40625 L 7.125 -108.890625 L 64.453125 -108.890625 L 64.453125 -72.59375 C 64.453125 -58.125 69.085938 -50.890625 78.359375 -50.890625 C 83.566406 -50.890625 87.1875 -52.414062 89.21875 -55.46875 C 91.25 -58.519531 92.265625 -63.664062 92.265625 -70.90625 C 92.265625 -80.394531 91.132812 -88.25 88.875 -94.46875 C 86.613281 -100.695312 83.726562 -105.898438 80.21875 -110.078125 C 76.71875 -114.265625 70.445312 -120.769531 61.40625 -129.59375 L 36.296875 -154.6875 C 16.847656 -173.6875 7.125 -194.71875 7.125 -217.78125 C 7.125 -242.664062 12.832031 -261.609375 24.25 -274.609375 C 35.675781 -287.609375 52.359375 -294.109375 74.296875 -294.109375 C 100.523438 -294.109375 119.40625 -287.15625 130.9375 -273.25 C 142.476562 -259.34375 148.25 -237.578125 148.25 -207.953125 L 88.875 -207.953125 L 88.546875 -227.96875 C 88.546875 -231.8125 87.46875 -234.863281 85.3125 -237.125 C 83.164062 -239.382812 80.171875 -240.515625 76.328125 -240.515625 C 71.804688 -240.515625 68.414062 -239.269531 66.15625 -236.78125 C 63.894531 -234.289062 62.765625 -230.898438 62.765625 -226.609375 C 62.765625 -217.109375 68.191406 -207.269531 79.046875 -197.09375 L 112.96875 -164.53125 C 120.882812 -156.84375 127.441406 -149.546875 132.640625 -142.640625 C 137.835938 -135.742188 142.019531 -127.601562 145.1875 -118.21875 C 148.351562 -108.832031 149.9375 -97.695312 149.9375 -84.8125 C 149.9375 -56.082031 144.675781 -34.3125 134.15625 -19.5 C 123.644531 -4.6875 106.289062 2.71875 82.09375 2.71875 Z M 82.09375 2.71875 "/></g></g></g><g fill="#000000" fill-opacity="1"><g transform="translate(575.840255, 385.260971)"><g><path d="M 5.09375 0 L 33.25 -291.40625 L 131.96875 -291.40625 L 159.78125 0 L 104.484375 0 L 100.40625 -47.15625 L 65.140625 -47.15625 L 61.734375 0 Z M 69.546875 -93.625 L 96 -93.625 L 83.109375 -241.875 L 80.40625 -241.875 Z M 69.546875 -93.625 "/></g></g></g></g></g><g transform="matrix(1, 0, 0, 1, 122, 518)"><g clip-path="url(#b00ede3286)"><g fill="#000000" fill-opacity="1"><g transform="translate(373.489257, 326.288449)"><g><path d="M -165.515625 -90.5 C -186.054688 -90.5 -200.445312 -88.925781 -208.6875 -85.78125 C -216.9375 -82.644531 -221.0625 -76.554688 -221.0625 -67.515625 C -221.0625 -58.472656 -216.832031 -52.40625 -208.375 -49.3125 C -199.914062 -46.226562 -185.257812 -44.6875 -164.40625 -44.6875 L -69.59375 -44.6875 C -47.675781 -44.6875 -33.628906 -46.414062 -27.453125 -49.875 C -21.285156 -53.332031 -18.203125 -58.46875 -18.203125 -65.28125 C -18.203125 -72.09375 -19.453125 -76.960938 -21.953125 -79.890625 C -24.453125 -82.816406 -28.65625 -85.316406 -34.5625 -87.390625 C -40.46875 -89.460938 -52.035156 -90.5 -69.265625 -90.5 Z M -284.59375 -90.34375 L -284.59375 -114.28125 L 0 -114.28125 L 0 -90.34375 L -18.203125 -90.34375 C -4.898438 -84.8125 1.75 -74.222656 1.75 -58.578125 C 1.644531 -40.804688 -8.9375 -29.523438 -30 -24.734375 C -41.601562 -22.078125 -57.195312 -20.75 -76.78125 -20.75 L -160.890625 -20.75 C -193.023438 -20.75 -214.625 -24.601562 -225.6875 -32.3125 C -236.757812 -40.03125 -242.296875 -50.914062 -242.296875 -64.96875 C -242.296875 -70.394531 -240.351562 -75.421875 -236.46875 -80.046875 C -232.582031 -84.671875 -227.875 -88.101562 -222.34375 -90.34375 Z M -284.59375 -90.34375 "/></g></g></g><g fill="#000000" fill-opacity="1"><g transform="translate(373.489257, 218.160601)"><g><path d="M -139.984375 -87.625 L -172.0625 -87.625 C -190.050781 -87.625 -201.8125 -86.929688 -207.34375 -85.546875 C -216.707031 -83.210938 -221.390625 -77.363281 -221.390625 -68 C -221.390625 -55.4375 -213.140625 -47.988281 -196.640625 -45.65625 C -189.941406 -44.695312 -181.75 -44.21875 -172.0625 -44.21875 C -171.101562 -44.21875 -170.144531 -44.21875 -169.1875 -44.21875 L -139.984375 -44.21875 Z M -161.84375 -20.4375 C -189.726562 -20.4375 -208.882812 -22.988281 -219.3125 -28.09375 C -229.738281 -33.414062 -236.492188 -40.546875 -239.578125 -49.484375 C -241.390625 -54.804688 -242.296875 -60.953125 -242.296875 -67.921875 C -242.296875 -74.890625 -241.441406 -80.925781 -239.734375 -86.03125 C -237.179688 -93.800781 -230.210938 -100.347656 -218.828125 -105.671875 C -210.847656 -109.492188 -191.21875 -111.40625 -159.9375 -111.40625 L -120.03125 -111.40625 L -120.03125 -44.21875 L -71.828125 -44.21875 C -47.140625 -44.21875 -32 -46.050781 -26.40625 -49.71875 C -20.820312 -53.394531 -18.03125 -58.820312 -18.03125 -66 C -18.03125 -73.1875 -20.265625 -78.238281 -24.734375 -81.15625 C -29.203125 -84.082031 -34.972656 -85.890625 -42.046875 -86.578125 C -49.128906 -87.273438 -58.738281 -87.625 -70.875 -87.625 L -88.75 -87.625 L -88.75 -110.765625 L -80.921875 -110.765625 C -57.296875 -110.765625 -41.125 -109.96875 -32.40625 -108.375 C -8.882812 -104.332031 2.875 -91.191406 2.875 -68.953125 C 2.875 -49.585938 -3.082031 -36.710938 -15 -30.328125 C -22.875 -25.960938 -31.863281 -23.222656 -41.96875 -22.109375 C -52.082031 -20.992188 -65.28125 -20.4375 -81.5625 -20.4375 Z M -161.84375 -20.4375 "/></g></g></g><g fill="#000000" fill-opacity="1"><g transform="translate(373.489257, 118.81148)"><g><path d="M -188.34375 -19.15625 C -206.007812 -19.15625 -219.414062 -23.382812 -228.5625 -31.84375 C -237.71875 -40.300781 -242.296875 -51.976562 -242.296875 -66.875 C -242.296875 -81.769531 -236.390625 -92.675781 -224.578125 -99.59375 C -212.765625 -106.507812 -193.078125 -109.96875 -165.515625 -109.96875 L -152.75 -109.96875 L -152.75 -85.234375 L -169.828125 -85.234375 C -186.742188 -85.234375 -199.40625 -83.769531 -207.8125 -80.84375 C -216.21875 -77.914062 -220.421875 -72.804688 -220.421875 -65.515625 C -220.421875 -58.234375 -218 -52.703125 -213.15625 -48.921875 C -208.320312 -45.140625 -199.945312 -43.25 -188.03125 -43.25 C -187.707031 -43.25 -187.382812 -43.25 -187.0625 -43.25 C -168.445312 -43.25 -150.734375 -51.921875 -133.921875 -69.265625 L -121.953125 -81.5625 C -100.773438 -102.738281 -77.414062 -113.328125 -51.875 -113.328125 C -34.851562 -113.328125 -21.421875 -109.65625 -11.578125 -102.3125 C -1.734375 -94.96875 3.1875 -83.421875 3.1875 -67.671875 C 3.1875 -51.921875 -2.238281 -40.132812 -13.09375 -32.3125 C -23.945312 -24.5 -41.238281 -20.59375 -64.96875 -20.59375 L -85.546875 -20.59375 L -85.546875 -45.015625 L -69.109375 -45.015625 C -35.378906 -45.015625 -18.515625 -52.351562 -18.515625 -67.03125 C -18.515625 -74.90625 -21.066406 -80.492188 -26.171875 -83.796875 C -31.285156 -87.097656 -40.332031 -88.75 -53.3125 -88.75 C -72.570312 -88.75 -90.660156 -80.445312 -107.578125 -63.84375 L -120.34375 -51.234375 C -142.050781 -29.847656 -164.71875 -19.15625 -188.34375 -19.15625 Z M -188.34375 -19.15625 "/></g></g></g></g></g><g clip-path="url(#f358f25d10)"><path fill="#ffffff" d="M 583.835938 536.789062 C 584.488281 537.414062 585.058594 540.199219 585.171875 541.1875 C 587.292969 560.261719 585.480469 580.730469 587.355469 599.78125 C 587.566406 601.894531 588.316406 604.699219 590.976562 604.628906 C 594.078125 604.546875 594.40625 599.550781 594.574219 597.230469 C 595.542969 583.550781 594.617188 568.5625 594.984375 554.714844 C 595.09375 550.511719 594.996094 541.898438 595.953125 538.253906 C 596.59375 535.808594 598.558594 536.1875 599.386719 538.445312 C 600.78125 542.25 601.6875 551.972656 602.222656 556.4375 C 603.675781 568.578125 604.324219 580.796875 604.757812 593 C 605.121094 603.167969 607.054688 617.222656 602.152344 626.488281 C 595.839844 638.410156 584.410156 636.476562 582.304688 653.816406 C 580.507812 668.585938 582.058594 689.25 583.101562 704.335938 C 584.914062 730.542969 589.84375 756.171875 592.445312 782.128906 C 593.902344 796.675781 596.042969 820.257812 574.8125 820.160156 C 556.152344 820.082031 556.097656 800.808594 557.175781 787.226562 C 559.691406 755.578125 565.769531 725.121094 567.378906 692.871094 C 567.992188 680.550781 570.601562 653.453125 564.3125 643.222656 C 559.285156 635.039062 549.929688 634.101562 546.351562 622.929688 C 542.851562 612.019531 545.152344 585.3125 546.125 573.011719 C 546.753906 565.085938 548.042969 545.0625 550.667969 538.453125 C 551.566406 536.191406 553.25 535.761719 554.101562 538.246094 C 555.554688 559.46875 554.585938 580.953125 556.109375 602.128906 C 556.773438 604.917969 560.671875 605.636719 561.945312 602.859375 C 562.308594 602.066406 562.59375 600.277344 562.691406 599.351562 C 564.675781 580.460938 562.707031 560.0625 564.832031 541.132812 C 565.207031 537.769531 567.570312 533.265625 569.148438 538.503906 C 569.664062 540.214844 569.78125 544.183594 569.917969 546.230469 C 570.671875 557.542969 570.382812 568.933594 570.757812 580.246094 C 570.976562 586.9375 570.699219 594.40625 571.660156 601.019531 C 572.367188 605.871094 577.675781 605.910156 578.390625 600.59375 C 579.761719 590.371094 578.875 577.613281 579.257812 567.035156 C 579.558594 558.855469 579.410156 548.183594 580.554688 540.28125 C 580.78125 538.726562 581.804688 534.839844 583.835938 536.785156 Z M 583.835938 536.789062 " fill-opacity="1" fill-rule="nonzero"/></g><g clip-path="url(#d22d0055cd)"><path fill="#ffffff" d="M 1161.664062 800.523438 L 1147.421875 800.523438 C 1147.414062 800.523438 1147.40625 800.523438 1147.398438 800.523438 C 1142.523438 799.300781 1139.828125 795.59375 1139.324219 789.421875 C 1138.988281 785.25 1139.007812 781.382812 1139.382812 777.800781 C 1142.1875 750.972656 1144.445312 725.894531 1146.15625 702.570312 C 1147.308594 687.054688 1147.863281 671.902344 1147.824219 657.125 C 1147.804688 649.933594 1148.136719 642.289062 1143.5 636.363281 C 1141.355469 633.625 1138.753906 630.515625 1135.703125 627.050781 C 1128.078125 618.386719 1124.019531 609.34375 1123.082031 597.570312 C 1121.835938 582.160156 1124.816406 565.992188 1132.925781 552.804688 C 1136.074219 547.683594 1140.058594 543.921875 1144.890625 541.519531 C 1150.269531 538.859375 1158.175781 539.289062 1163.515625 542.589844 C 1166.597656 544.503906 1169.292969 546.992188 1171.609375 550.054688 C 1181.578125 563.21875 1185 582.378906 1183.515625 598.34375 C 1183.007812 603.722656 1181.980469 608.367188 1180.4375 612.273438 C 1176.664062 621.804688 1167.667969 630.648438 1163.539062 636.210938 C 1160.117188 640.832031 1159.460938 645.800781 1159.414062 652.558594 C 1159.15625 693.101562 1164.363281 736.195312 1168.898438 779.851562 C 1169.425781 784.933594 1169.214844 789.34375 1168.265625 793.097656 C 1167.367188 796.667969 1165.175781 799.136719 1161.699219 800.515625 C 1161.6875 800.523438 1161.675781 800.523438 1161.664062 800.523438 Z M 1161.664062 800.523438 " fill-opacity="1" fill-rule="nonzero"/></g></svg>